<?xml version="1.0" encoding="UTF-8"?>
<svg width="700pt" height="700pt" version="1.1" viewBox="0 0 700 700" xmlns="http://www.w3.org/2000/svg">
 <g>
  <path d="m367.5 315c86.836 0 157.5-70.664 157.5-157.5s-70.664-157.5-157.5-157.5-157.5 70.664-157.5 157.5 70.664 157.5 157.5 157.5zm0-210c28.945 0 52.5 23.555 52.5 52.5s-23.555 52.5-52.5 52.5-52.5-23.555-52.5-52.5 23.555-52.5 52.5-52.5z"/>
  <path d="m495.36 301.04c-34.547 31.57-79.977 48.965-127.86 48.965s-93.309-17.395-127.86-48.965c-6.4414-5.8789-16.238-6.0898-22.926-0.59375-6.7188 5.5625-8.3633 15.223-3.8125 22.609l139.65 228.55c3.1836 5.2148 8.8555 8.3984 14.945 8.3984s11.762-3.1836 14.945-8.3633l139.65-228.55c4.5508-7.4219 2.9062-17.078-3.7812-22.609-6.7891-5.5312-16.551-5.2852-22.957 0.55859z"/>
 </g>
</svg>
