<?xml version="1.0" encoding="UTF-8"?>
<svg width="700pt" height="700pt" version="1.1" viewBox="0 0 700 700" xmlns="http://www.w3.org/2000/svg" xmlns:xlink="http://www.w3.org/1999/xlink">
 <defs>
  <symbol id="s" overflow="visible">
   <path d="m1.625-0.09375c-0.085938 0.042969-0.17188 0.074219-0.26562 0.09375s-0.1875 0.03125-0.28125 0.03125c-0.29297 0-0.52734-0.078125-0.70312-0.23438-0.16797-0.16406-0.25-0.39062-0.25-0.67188s0.082031-0.50391 0.25-0.67188c0.17578-0.16406 0.41016-0.25 0.70312-0.25 0.09375 0 0.1875 0.011719 0.28125 0.03125 0.09375 0.023437 0.17969 0.054687 0.26562 0.09375v0.375c-0.085938-0.0625-0.16797-0.10156-0.25-0.125-0.085938-0.03125-0.17188-0.046875-0.26562-0.046875-0.15625 0-0.28125 0.054688-0.375 0.15625-0.09375 0.10547-0.14062 0.25-0.14062 0.4375 0 0.17969 0.046875 0.32031 0.14062 0.42188 0.09375 0.10547 0.21875 0.15625 0.375 0.15625 0.09375 0 0.17969-0.007813 0.26562-0.03125 0.082031-0.03125 0.16406-0.078125 0.25-0.14062z"/>
  </symbol>
  <symbol id="c" overflow="visible">
   <path d="m1.1875-0.96875c-0.042969-0.007812-0.085938-0.019531-0.125-0.03125-0.03125-0.007812-0.0625-0.015625-0.09375-0.015625-0.11719 0-0.20312 0.039063-0.26562 0.10938-0.054687 0.0625-0.078125 0.16406-0.078125 0.29688v0.60938h-0.42188v-1.3281h0.42188v0.21875c0.050781-0.082031 0.11328-0.14453 0.1875-0.1875 0.070312-0.039063 0.15625-0.0625 0.25-0.0625h0.046875c0.019531 0 0.046875 0.007813 0.078125 0.015625z"/>
  </symbol>
  <symbol id="a" overflow="visible">
   <path d="m1.5312-0.67188v0.125h-1c0.007812 0.10547 0.046875 0.18359 0.10938 0.23438 0.0625 0.042969 0.14844 0.0625 0.26562 0.0625 0.082031 0 0.17188-0.007812 0.26562-0.03125 0.09375-0.03125 0.19141-0.070312 0.29688-0.125v0.32812c-0.10547 0.03125-0.21094 0.058594-0.3125 0.078125-0.09375 0.019531-0.19531 0.03125-0.29688 0.03125-0.24219 0-0.42969-0.054688-0.5625-0.17188-0.125-0.125-0.1875-0.29688-0.1875-0.51562s0.0625-0.39062 0.1875-0.51562c0.13281-0.125 0.31641-0.1875 0.54688-0.1875 0.20703 0 0.375 0.0625 0.5 0.1875s0.1875 0.29297 0.1875 0.5zm-0.4375-0.14062c0-0.070312-0.027344-0.13281-0.078125-0.1875-0.042969-0.050781-0.10156-0.078125-0.17188-0.078125-0.085938 0-0.15234 0.027344-0.20312 0.078125-0.054687 0.042969-0.085937 0.10547-0.09375 0.1875z"/>
  </symbol>
  <symbol id="j" overflow="visible">
   <path d="m0.79688-0.59375c-0.085937 0-0.15234 0.015625-0.20312 0.046875-0.042969 0.03125-0.0625 0.074219-0.0625 0.125 0 0.054687 0.015625 0.09375 0.046875 0.125 0.039063 0.03125 0.09375 0.046875 0.15625 0.046875 0.082031 0 0.14844-0.023438 0.20312-0.078125 0.050781-0.0625 0.078125-0.13281 0.078125-0.21875v-0.046875zm0.64062-0.15625v0.75h-0.42188v-0.20312c-0.054687 0.085937-0.11719 0.14844-0.1875 0.1875-0.074219 0.03125-0.16406 0.046875-0.26562 0.046875-0.13672 0-0.24609-0.035156-0.32812-0.10938-0.085937-0.082031-0.125-0.1875-0.125-0.3125 0-0.15625 0.050781-0.26953 0.15625-0.34375 0.10156-0.070313 0.26953-0.10938 0.5-0.10938h0.25v-0.03125c0-0.070312-0.027344-0.125-0.078125-0.15625-0.054688-0.03125-0.13672-0.046875-0.25-0.046875-0.09375 0-0.17969 0.011719-0.25 0.03125-0.074219 0.023437-0.14844 0.046875-0.21875 0.078125v-0.3125c0.09375-0.03125 0.17969-0.050781 0.26562-0.0625 0.09375-0.007812 0.1875-0.015625 0.28125-0.015625 0.23828 0 0.41016 0.046875 0.51562 0.14062 0.10156 0.09375 0.15625 0.25 0.15625 0.46875z"/>
  </symbol>
  <symbol id="b" overflow="visible">
   <path d="m0.67188-1.7031v0.375h0.4375v0.3125h-0.4375v0.5625c0 0.054687 0.007813 0.09375 0.03125 0.125 0.019531 0.023437 0.066406 0.03125 0.14062 0.03125h0.21875v0.29688h-0.35938c-0.16797 0-0.28906-0.03125-0.35938-0.09375-0.0625-0.070312-0.09375-0.19141-0.09375-0.35938v-0.5625h-0.21875v-0.3125h0.21875v-0.375z"/>
  </symbol>
  <symbol id="i" overflow="visible">
   <path d="m1.1094-1.125v-0.71875h0.42188v1.8438h-0.42188v-0.1875c-0.0625 0.074219-0.13281 0.13281-0.20312 0.17188-0.0625 0.03125-0.14062 0.046875-0.23438 0.046875-0.16797 0-0.30469-0.0625-0.40625-0.1875-0.10547-0.13281-0.15625-0.30078-0.15625-0.5 0-0.20703 0.050781-0.375 0.15625-0.5 0.10156-0.13281 0.23828-0.20312 0.40625-0.20312 0.09375 0 0.17188 0.023437 0.23438 0.0625 0.070312 0.03125 0.14062 0.089844 0.20312 0.17188zm-0.28125 0.85938c0.09375 0 0.16016-0.03125 0.20312-0.09375 0.050781-0.070313 0.078125-0.17188 0.078125-0.29688s-0.027344-0.21875-0.078125-0.28125c-0.042969-0.070312-0.10938-0.10938-0.20312-0.10938s-0.16797 0.039063-0.21875 0.10938c-0.042969 0.0625-0.0625 0.15625-0.0625 0.28125s0.019531 0.22656 0.0625 0.29688c0.050781 0.0625 0.125 0.09375 0.21875 0.09375z"/>
  </symbol>
  <symbol id="h" overflow="visible">
   <path d="m0.90625-0.26562c0.09375 0 0.16016-0.03125 0.20312-0.09375 0.050781-0.070313 0.078125-0.17188 0.078125-0.29688s-0.027344-0.21875-0.078125-0.28125c-0.042969-0.070312-0.10938-0.10938-0.20312-0.10938s-0.16797 0.039063-0.21875 0.10938c-0.042969 0.0625-0.0625 0.15625-0.0625 0.28125s0.019531 0.22656 0.0625 0.29688c0.050781 0.0625 0.125 0.09375 0.21875 0.09375zm-0.28125-0.85938c0.0625-0.082031 0.125-0.14062 0.1875-0.17188 0.070312-0.039063 0.15625-0.0625 0.25-0.0625 0.16406 0 0.30078 0.070313 0.40625 0.20312 0.10156 0.125 0.15625 0.29297 0.15625 0.5 0 0.19922-0.054688 0.36719-0.15625 0.5-0.10547 0.125-0.24219 0.1875-0.40625 0.1875-0.09375 0-0.17969-0.015625-0.25-0.046875-0.0625-0.039062-0.125-0.097656-0.1875-0.17188v0.1875h-0.42188v-1.8438h0.42188z"/>
  </symbol>
  <symbol id="g" overflow="visible">
   <path d="m0.03125-1.3281h0.42188l0.35938 0.90625 0.29688-0.90625h0.42188l-0.54688 1.4531c-0.0625 0.14453-0.13281 0.24219-0.20312 0.29688-0.074219 0.0625-0.17188 0.09375-0.29688 0.09375h-0.23438v-0.26562h0.125c0.070312 0 0.125-0.015625 0.15625-0.046875 0.03125-0.023437 0.054688-0.058594 0.078125-0.10938l0.015625-0.046875z"/>
  </symbol>
  <symbol id="f" overflow="visible">
   <path d="m0.21875-1.7656h0.45312v0.67188h0.67188v-0.67188h0.45312v1.7656h-0.45312v-0.75h-0.67188v0.75h-0.45312z"/>
  </symbol>
  <symbol id="e" overflow="visible">
   <path d="m1.2812-1.2812v0.34375c-0.0625-0.039062-0.125-0.066406-0.1875-0.078125-0.054688-0.019531-0.10938-0.03125-0.17188-0.03125-0.11719 0-0.21094 0.039063-0.28125 0.10938-0.0625 0.0625-0.09375 0.15625-0.09375 0.28125s0.03125 0.22656 0.09375 0.29688c0.070313 0.0625 0.16406 0.09375 0.28125 0.09375 0.0625 0 0.125-0.007813 0.1875-0.03125 0.0625-0.019531 0.11719-0.050781 0.17188-0.09375v0.35938c-0.074219 0.023438-0.14844 0.035156-0.21875 0.046875-0.0625 0.0078125-0.13281 0.015625-0.20312 0.015625-0.23047 0-0.41406-0.054688-0.54688-0.17188-0.13672-0.125-0.20312-0.29688-0.20312-0.51562s0.066406-0.39062 0.20312-0.51562c0.13281-0.125 0.31641-0.1875 0.54688-0.1875 0.070313 0 0.14062 0.011719 0.20312 0.03125 0.070312 0.011719 0.14453 0.027344 0.21875 0.046875z"/>
  </symbol>
  <symbol id="d" overflow="visible">
   <path d="m0.82812-1.0469c-0.09375 0-0.16797 0.039063-0.21875 0.10938-0.042969 0.0625-0.0625 0.15625-0.0625 0.28125s0.019531 0.22656 0.0625 0.29688c0.050781 0.0625 0.125 0.09375 0.21875 0.09375s0.16406-0.03125 0.21875-0.09375c0.050781-0.070313 0.078125-0.17188 0.078125-0.29688s-0.027344-0.21875-0.078125-0.28125c-0.054687-0.070312-0.125-0.10938-0.21875-0.10938zm0-0.3125c0.22656 0 0.40625 0.0625 0.53125 0.1875 0.13281 0.125 0.20312 0.29688 0.20312 0.51562s-0.070312 0.39062-0.20312 0.51562c-0.125 0.11719-0.30469 0.17188-0.53125 0.17188-0.23047 0-0.40625-0.054688-0.53125-0.17188-0.125-0.125-0.1875-0.29688-0.1875-0.51562s0.0625-0.39062 0.1875-0.51562 0.30078-0.1875 0.53125-0.1875z"/>
  </symbol>
  <symbol id="r" overflow="visible">
   <path d="m1.0781-1.8438v0.28125h-0.23438c-0.0625 0-0.10547 0.011719-0.125 0.03125-0.023438 0.023438-0.03125 0.058594-0.03125 0.10938v0.09375h0.35938v0.3125h-0.35938v1.0156h-0.4375v-1.0156h-0.20312v-0.3125h0.20312v-0.09375c0-0.14453 0.039062-0.25 0.125-0.3125 0.082031-0.070313 0.20703-0.10938 0.375-0.10938z"/>
  </symbol>
  <symbol id="q" overflow="visible">
   <path d="m1.4375-1.1094c0.050781-0.082031 0.11328-0.14453 0.1875-0.1875 0.070312-0.039063 0.14844-0.0625 0.23438-0.0625 0.15625 0 0.26953 0.046875 0.34375 0.14062 0.082031 0.09375 0.125 0.23047 0.125 0.40625v0.8125h-0.42188v-0.6875-0.03125-0.046875c0-0.09375-0.015625-0.16016-0.046875-0.20312-0.023437-0.039062-0.0625-0.0625-0.125-0.0625-0.085937 0-0.14844 0.03125-0.1875 0.09375-0.042969 0.0625-0.0625 0.15625-0.0625 0.28125v0.65625h-0.4375v-0.6875c0-0.14453-0.011719-0.23828-0.03125-0.28125-0.023437-0.039062-0.070313-0.0625-0.14062-0.0625-0.074219 0-0.13672 0.03125-0.1875 0.09375-0.042969 0.0625-0.0625 0.15625-0.0625 0.28125v0.65625h-0.42188v-1.3281h0.42188v0.20312c0.050781-0.082031 0.10938-0.14062 0.17188-0.17188 0.070313-0.039063 0.14844-0.0625 0.23438-0.0625 0.09375 0 0.17188 0.027344 0.23438 0.078125 0.070313 0.042969 0.12891 0.10156 0.17188 0.17188z"/>
  </symbol>
  <symbol id="p" overflow="visible">
   <path d="m1.5312-0.8125v0.8125h-0.42188v-0.60938c0-0.11328-0.007813-0.19141-0.015625-0.23438 0-0.050781-0.007812-0.085938-0.015625-0.10938-0.023437-0.019531-0.046875-0.035156-0.078125-0.046875-0.023438-0.019531-0.054688-0.03125-0.09375-0.03125-0.085938 0-0.15234 0.039062-0.20312 0.10938-0.054687 0.0625-0.078125 0.15234-0.078125 0.26562v0.65625h-0.42188v-1.8438h0.42188v0.71875c0.0625-0.082031 0.12891-0.14062 0.20312-0.17188 0.070313-0.039063 0.14844-0.0625 0.23438-0.0625 0.15625 0 0.26953 0.046875 0.34375 0.14062 0.082031 0.09375 0.125 0.23047 0.125 0.40625z"/>
  </symbol>
  <symbol id="o" overflow="visible">
   <path d="m0.21875-1.7656h0.51562l0.64062 1.2188v-1.2188h0.42188v1.7656h-0.5l-0.64062-1.2188v1.2188h-0.4375z"/>
  </symbol>
  <symbol id="n" overflow="visible">
   <path d="m0.1875-0.51562v-0.8125h0.42188v0.14062 0.26562 0.21875 0.23438c0.007813 0.042969 0.023437 0.074219 0.046875 0.09375 0.007812 0.03125 0.03125 0.058594 0.0625 0.078125 0.03125 0.011719 0.0625 0.015625 0.09375 0.015625 0.09375 0 0.16016-0.03125 0.20312-0.09375 0.050781-0.070312 0.078125-0.17188 0.078125-0.29688v-0.65625h0.42188v1.3281h-0.42188v-0.1875c-0.0625 0.074219-0.13281 0.13281-0.20312 0.17188-0.074219 0.03125-0.15234 0.046875-0.23438 0.046875-0.15625 0-0.27734-0.046875-0.35938-0.14062-0.074219-0.09375-0.10938-0.22656-0.10938-0.40625z"/>
  </symbol>
  <symbol id="m" overflow="visible">
   <path d="m1.5312-0.8125v0.8125h-0.42188v-0.625c0-0.10156-0.007813-0.17578-0.015625-0.21875 0-0.050781-0.007812-0.085938-0.015625-0.10938-0.023437-0.019531-0.046875-0.035156-0.078125-0.046875-0.023438-0.019531-0.054688-0.03125-0.09375-0.03125-0.085938 0-0.15234 0.039062-0.20312 0.10938-0.054687 0.0625-0.078125 0.15234-0.078125 0.26562v0.65625h-0.42188v-1.3281h0.42188v0.20312c0.0625-0.082031 0.12891-0.14062 0.20312-0.17188 0.070313-0.039063 0.14844-0.0625 0.23438-0.0625 0.15625 0 0.26953 0.046875 0.34375 0.14062 0.082031 0.09375 0.125 0.23047 0.125 0.40625z"/>
  </symbol>
  <symbol id="l" overflow="visible">
   <path d="m0.21875-1.7656h0.76562c0.21875 0 0.38281 0.054687 0.5 0.15625 0.125 0.09375 0.1875 0.23438 0.1875 0.42188s-0.0625 0.33594-0.1875 0.4375c-0.11719 0.09375-0.28125 0.14062-0.5 0.14062h-0.3125v0.60938h-0.45312zm0.45312 0.32812v0.5h0.25c0.09375 0 0.16016-0.019531 0.20312-0.0625 0.050781-0.050781 0.078125-0.11328 0.078125-0.1875 0-0.082031-0.027344-0.14453-0.078125-0.1875-0.042969-0.039062-0.10938-0.0625-0.20312-0.0625z"/>
  </symbol>
  <symbol id="k" overflow="visible">
   <path d="m0.20312-1.3281h0.42188v1.2969c0 0.1875-0.042969 0.32031-0.125 0.40625-0.085938 0.09375-0.21094 0.14062-0.375 0.14062h-0.20312v-0.26562h0.078125c0.070312 0 0.125-0.023438 0.15625-0.0625 0.03125-0.03125 0.046875-0.10547 0.046875-0.21875zm0-0.51562h0.42188v0.34375h-0.42188z"/>
  </symbol>
 </defs>
 <g>
  <path d="m324.16 559.15c-53.07-5.2695-100.84-23.77-142.72-55.27-63.457-47.734-102.87-118.6-110.55-198.76-1.8008-18.773-1.0156-46.469 1.8711-66.164 13.887-94.77 76.293-176.6 164.26-215.38 22.121-9.7539 48.219-17.289 71.875-20.754 25.719-3.7695 56.484-3.7695 82.207 0 94.77 13.887 176.6 76.293 215.38 164.26 9.75 22.121 17.289 48.219 20.754 71.875 3.7695 25.719 3.7695 56.484 0 82.207-10.676 72.859-50.527 139.48-109.88 183.66-41.684 31.035-89.465 49.281-142.3 54.344-11.609 1.1133-39.605 1.1016-50.898-0.019531zm-8.7852-190.71v-29.461h69.242v58.922h55.883v-108.12h18.223c10.023 0 18.223-0.22656 18.223-0.50391 0-0.76562-60.223-60.844-60.988-60.844-0.36719 0-15.406-14.742-33.426-32.762l-32.758-32.762-63.363 62.906c-34.848 34.598-63.363 63.145-63.363 63.438 0 0.29297 8.3359 0.53125 18.527 0.53125h18.527v108.12h55.273z"/>
  <use x="69.933594" y="567.289063" xlink:href="#s"/>
  <use x="71.714844" y="567.289063" xlink:href="#c"/>
  <use x="72.914063" y="567.289063" xlink:href="#a"/>
  <use x="74.5625" y="567.289063" xlink:href="#j"/>
  <use x="76.203125" y="567.289063" xlink:href="#b"/>
  <use x="77.363281" y="567.289063" xlink:href="#a"/>
  <use x="79.011719" y="567.289063" xlink:href="#i"/>
  <use x="81.597656" y="567.289063" xlink:href="#h"/>
  <use x="83.335938" y="567.289063" xlink:href="#g"/>
  <use x="85.765625" y="567.289063" xlink:href="#f"/>
  <use x="87.796875" y="567.289063" xlink:href="#a"/>
  <use x="89.445313" y="567.289063" xlink:href="#e"/>
  <use x="90.886719" y="567.289063" xlink:href="#b"/>
  <use x="92.046875" y="567.289063" xlink:href="#d"/>
  <use x="93.71875" y="567.289063" xlink:href="#c"/>
  <use x="69.933594" y="569.71875" xlink:href="#r"/>
  <use x="70.992188" y="569.71875" xlink:href="#c"/>
  <use x="72.1875" y="569.71875" xlink:href="#d"/>
  <use x="73.859375" y="569.71875" xlink:href="#q"/>
  <use x="77.234375" y="569.71875" xlink:href="#b"/>
  <use x="78.398438" y="569.71875" xlink:href="#p"/>
  <use x="80.125" y="569.71875" xlink:href="#a"/>
  <use x="82.621094" y="569.71875" xlink:href="#o"/>
  <use x="84.652344" y="569.71875" xlink:href="#d"/>
  <use x="86.324219" y="569.71875" xlink:href="#n"/>
  <use x="88.050781" y="569.71875" xlink:href="#m"/>
  <use x="90.628906" y="569.71875" xlink:href="#l"/>
  <use x="92.410156" y="569.71875" xlink:href="#c"/>
  <use x="93.605469" y="569.71875" xlink:href="#d"/>
  <use x="95.277344" y="569.71875" xlink:href="#k"/>
  <use x="96.109375" y="569.71875" xlink:href="#a"/>
  <use x="97.757813" y="569.71875" xlink:href="#e"/>
  <use x="99.195313" y="569.71875" xlink:href="#b"/>
 </g>
</svg>
